<?xml version="1.0" standalone="no"?>
<!DOCTYPE svg PUBLIC "-//W3C//DTD SVG 20010904//EN"
 "http://www.w3.org/TR/2001/REC-SVG-20010904/DTD/svg10.dtd">
<svg version="1.0" xmlns="http://www.w3.org/2000/svg"
 width="1024.000000pt" height="1024.000000pt" viewBox="0 0 1024.000000 1024.000000"
 preserveAspectRatio="xMidYMid meet">
<metadata>
Created by potrace 1.14, written by Peter Selinger 2001-2017
</metadata>
<g transform="translate(0.000000,1024.000000) scale(0.100000,-0.100000)"
fill="#000000" stroke="none">
<path d="M4335 10145 c-101 -18 -144 -44 -223 -134 -101 -115 -185 -265 -247
-446 -16 -45 -37 -87 -49 -95 -28 -21 -76 -71 -76 -81 0 -4 -20 -1 -45 8 -25
8 -57 13 -71 10 -18 -3 -49 12 -122 61 -130 87 -295 165 -416 197 -131 34
-179 32 -276 -12 -102 -46 -321 -217 -402 -314 -20 -24 -48 -57 -62 -74 -15
-16 -50 -60 -78 -97 -29 -38 -57 -68 -63 -68 -20 0 -241 -87 -316 -125 -143
-71 -295 -180 -372 -265 -72 -80 -89 -137 -90 -305 0 -155 15 -257 63 -424 19
-68 26 -109 21 -120 -5 -9 -11 -36 -13 -60 -3 -42 -6 -45 -41 -55 -21 -6 -48
-20 -60 -32 -19 -18 -39 -22 -147 -28 -69 -3 -143 -9 -165 -12 -161 -22 -372
-97 -429 -153 -69 -67 -133 -209 -175 -391 -29 -123 -39 -198 -46 -353 l-7
-138 -75 -112 c-122 -182 -223 -410 -252 -569 -15 -82 -6 -174 22 -228 77
-149 213 -302 379 -428 52 -40 88 -74 88 -85 0 -9 11 -34 24 -55 l24 -38 -24
-29 c-13 -17 -27 -46 -30 -65 -5 -28 -17 -43 -59 -73 -174 -127 -351 -326
-410 -463 -47 -109 -10 -309 100 -542 45 -95 70 -138 162 -273 l51 -77 7 -129
c11 -217 33 -348 87 -508 57 -172 117 -252 223 -301 157 -72 281 -99 510 -110
102 -5 134 -10 150 -24 11 -9 35 -23 52 -30 28 -11 33 -17 33 -47 0 -18 6 -49
14 -68 13 -30 12 -40 -9 -110 -22 -70 -44 -170 -60 -265 -11 -64 -13 -214 -3
-288 14 -121 57 -184 203 -297 142 -111 295 -188 566 -287 15 -5 41 -30 59
-54 231 -321 552 -555 729 -529 152 22 327 95 509 214 81 53 113 68 132 65 14
-3 44 1 66 9 41 13 41 13 60 -15 10 -16 33 -37 49 -47 24 -14 36 -35 58 -102
61 -181 159 -356 265 -470 100 -108 175 -129 432 -124 166 3 265 20 457 75
l103 30 138 -39 c76 -22 161 -42 188 -46 27 -4 58 -10 69 -12 11 -3 88 -6 170
-8 166 -4 264 9 333 45 40 21 141 126 191 198 42 61 137 257 166 345 24 71 36
92 60 107 17 11 39 33 50 50 13 20 25 28 35 24 8 -4 39 -9 68 -12 44 -4 68
-15 149 -69 159 -106 290 -167 443 -204 80 -20 109 -20 191 -4 78 15 275 150
399 275 92 91 126 130 197 227 25 34 58 66 72 72 14 5 64 24 111 41 294 109
538 273 620 416 68 118 58 413 -24 677 -21 68 -23 84 -13 115 7 21 12 51 11
68 -1 27 4 33 35 44 20 7 45 20 56 30 16 14 47 19 150 24 209 10 337 36 480
97 102 43 154 91 198 181 96 198 139 415 146 734 1 20 20 60 58 115 120 179
196 332 241 484 47 160 50 259 12 340 -63 132 -220 309 -382 433 -52 40 -88
74 -88 85 0 9 -12 36 -26 58 l-25 41 25 37 c14 20 26 46 26 57 0 13 22 37 64
67 208 153 396 376 425 507 14 63 7 152 -18 243 -51 180 -111 306 -232 490
l-79 120 -5 111 c-7 170 -14 231 -42 356 -40 185 -111 348 -179 412 -50 47
-217 113 -344 137 -100 19 -124 21 -255 27 -109 5 -133 9 -151 26 -12 10 -36
23 -55 28 -32 9 -34 13 -37 56 -1 25 -7 54 -12 64 -7 12 -1 46 19 116 49 172
64 276 64 429 -1 167 -17 220 -89 303 -83 95 -268 222 -424 291 -118 52 -131
57 -200 80 -36 12 -70 25 -75 29 -6 4 -57 64 -114 134 -112 140 -202 227 -319
311 -190 136 -265 155 -434 112 -125 -32 -272 -100 -416 -194 -81 -53 -113
-68 -132 -65 -14 3 -44 -1 -66 -8 l-40 -14 -28 38 c-15 21 -37 40 -49 44 -18
4 -28 24 -51 97 -32 98 -121 282 -173 357 -48 70 -142 169 -176 187 -75 38
-140 48 -317 48 -173 -1 -269 -15 -453 -66 l-138 -39 -122 35 c-67 20 -160 42
-207 51 -113 21 -365 26 -455 9z"/>
</g>
</svg>
